<?xml version="1.0" encoding="iso-8859-1"?>
<!-- Generator: Adobe Illustrator 19.0.0, SVG Export Plug-In . SVG Version: 6.00 Build 0)  -->
<svg version="1.1" id="Layer_1" xmlns="http://www.w3.org/2000/svg" xmlns:xlink="http://www.w3.org/1999/xlink" x="0px" y="0px"
	 viewBox="0 0 512 512" style="enable-background:new 0 0 512 512;" xml:space="preserve">
<path style="fill:#EC589B;" d="M511.999,271.212c-39.648,36.343-85.525,64.792-135.148,84.134
	c-27.973,10.902-57.136,18.914-87.047,23.813c-11.199,1.831-22.493,2.758-33.799,2.758s-22.6-0.927-33.799-2.758
	c-41.491-6.8-81.555-19.58-118.979-37.758c-37.413-18.189-72.222-41.764-103.203-70.177C0.012,271.212,0,271.212,0,271.212
	s0,0,0.012-0.012L118.73,156.192c29.709-28.77,74.885-34.381,110.717-13.743l26.559,15.289l26.547-15.289
	c35.844-20.638,81.02-15.027,110.717,13.743L511.999,271.212z"/>
<g>
	<path style="fill:#D3468D;" d="M115.179,255.997c11.735-1.933,23.47-3.218,35.206-4.359c11.735-1.112,23.47-1.946,35.206-2.627
		c23.47-1.308,46.941-1.916,70.412-1.927c23.47-0.014,46.941,0.597,70.412,1.902c11.735,0.678,23.47,1.513,35.206,2.629
		c11.735,1.146,23.47,2.436,35.206,4.382c-11.735,1.946-23.47,3.236-35.206,4.382c-11.735,1.115-23.47,1.951-35.206,2.629
		c-23.47,1.307-46.941,1.916-70.412,1.902c-23.47-0.011-46.941-0.619-70.412-1.927c-11.735-0.681-23.47-1.516-35.206-2.627
		C138.65,259.215,126.914,257.93,115.179,255.997z"/>
	<path style="fill:#D3468D;" d="M376.851,355.346c-27.973,10.902-57.136,18.914-87.047,23.813
		c-11.199,1.831-22.493,2.758-33.799,2.758c-11.306,0-22.6-0.927-33.799-2.758c-41.491-6.8-81.555-19.58-118.979-37.758
		c-37.413-18.189-72.222-41.764-103.203-70.177c2.485,1.427,174.332,99.47,376.768,84.123H376.851z"/>
	<path style="fill:#D3468D;" d="M256.005,157.737L256.005,157.737c-1.681,11.556-12.828,19.175-24.232,16.664
		c-21.852-4.811-41.172-23.431-78.14,2.334C95.249,217.429,1.213,270.641,0.012,271.2L118.73,156.192
		c29.709-28.77,74.885-34.381,110.717-13.743L256.005,157.737z"/>
</g>
<path style="fill:#F67BB8;" d="M256.007,157.737L256.007,157.737c1.681,11.556,12.828,19.175,24.232,16.664
	c21.852-4.811,41.172-23.431,78.14,2.334c58.384,40.694,152.42,93.905,153.621,94.464L393.282,156.19
	c-29.709-28.77-74.885-34.381-110.717-13.743L256.007,157.737z"/>
<path style="fill:#F2F2F2;" d="M331.554,255.997l-28.167-14.827c-29.66-15.613-65.109-15.613-94.77,0l-28.167,14.827l28.167,14.827
	c29.66,15.613,65.109,15.613,94.77,0L331.554,255.997z"/>
<g>
</g>
<g>
</g>
<g>
</g>
<g>
</g>
<g>
</g>
<g>
</g>
<g>
</g>
<g>
</g>
<g>
</g>
<g>
</g>
<g>
</g>
<g>
</g>
<g>
</g>
<g>
</g>
<g>
</g>
</svg>
