<?xml version="1.0" encoding="iso-8859-1"?>
<!-- Generator: Adobe Illustrator 19.0.0, SVG Export Plug-In . SVG Version: 6.00 Build 0)  -->
<svg version="1.1" id="Capa_1" xmlns="http://www.w3.org/2000/svg" xmlns:xlink="http://www.w3.org/1999/xlink" x="0px" y="0px"
	 viewBox="0 0 485.762 485.762" style="enable-background:new 0 0 485.762 485.762;" xml:space="preserve">
<path style="fill:#ED664C;" d="M459.111,287.652c1,5.1,1.5,10.3,1.5,15.7c0,46.3-37.5,83.9-83.8,83.9c-1.1,0-2.4,0-3.3-0.1v0.1
	h-233.5v-0.2c-0.9,0.1-2.2,0.1-3.5,0.1c-46.3,0-83.8-37.6-83.8-83.9c0-6.5,0.8-12.9,2.2-19c8.6-37.3,42-65.3,81.8-65.3
	c21,0,40.2,7.9,54.9,20.4c11,9.4,25.1,14.3,39.5,14.3h51.1c14.5,0,28.5-5,39.6-14.4c14.7-12.5,33.9-20.3,54.8-20.3
	C417.711,219.052,451.811,248.752,459.111,287.652z M230.811,383.552L230.811,383.552h-0.4H230.811L230.811,383.552z"/>
<path d="M366.311,289.052l-17.5,2.9c-66.9,11.1-134.5,10.2-201-2.9c-5.4-1.1-10.7,2.5-11.7,7.9c-1.1,5.4,2.5,10.7,7.9,11.7
	c37.1,7.3,74.6,10.9,112.1,10.9c32,0,64.1-2.7,96-8l17.5-2.9c5.4-0.9,9.1-6.1,8.2-11.5
	C376.911,291.852,371.711,288.152,366.311,289.052z"/>
<path d="M409.511,92.352c-18.2-4.8-39.8-5-64.2-0.5c-33.6,6.2-72,20.8-117.6,44.6c-24.6,12.9-55.1,10.6-87.4,8.2
	c-40.1-3-81.5-6.1-115.7,19.8c-16,12.1-24.2,27-24.6,44.4c-0.7,34.6,31.8,67.8,44,79.1c-0.8,5.1-1.3,10.2-1.3,15.3
	c0,51.8,42.1,93.9,93.8,93.9c0.7,0,1.4-0.2,2.1-0.2c0.5,0.1,0.9-0.1,1.4-0.1h233.5c0.5,0,0.9,0.1,1.4,0.1c0.6,0,1.3,0.1,1.9,0.1
	c51.7,0,93.8-42.1,93.8-93.9c0-4-0.3-8.1-0.8-12c1.5-3.3,10.5-23.4,14.3-51.7c5.4-40.4-2.5-78.4-22.9-109.9
	C448.911,110.752,431.511,98.152,409.511,92.352z M376.811,377.252c-1,0-2-0.2-2.8-0.2s-1.5,0-2.3,0h-230c-0.8,0-1.5,0-2.3,0
	c-0.9,0-2,0.2-2.9,0.2c-40.7,0-73.8-33.1-73.8-73.9c0-5.7,0.6-11.3,1.9-16.8c3.7-16.1,12.9-30.6,25.8-41.1
	c13.3-10.8,29.3-16.4,46.3-16.4c17.6,0,34.8,6.5,48.5,18.1c12.7,10.8,29,16.8,46,16.8h51.1c17,0,33.3-6.1,46-16.9
	c13.7-11.6,30.8-18,48.3-18c35.5,0,66,25.4,72.6,60.4l0,0c0.9,4.5,1.3,9.1,1.3,13.8
	C450.611,344.052,417.511,377.252,376.811,377.252z M464.411,236.252c-1.1,8.7-2.8,16.5-4.6,23.2c-15.9-30.3-47.5-50.5-83.1-50.5
	c-22.3,0-44,8.2-61.3,22.8c-9.1,7.7-20.9,12.1-33.1,12.1h-51.1c-12.2,0-24-4.4-33-12.1c-17.3-14.7-39.1-22.8-61.4-22.8
	c-21.3,0-42.2,7.4-58.9,20.9c-12,9.7-21.4,22.3-27.5,36.4c-13.5-14-30.8-36.8-30.4-57c0.2-11.1,5.7-20.5,16.7-28.8
	c28.2-21.4,64.1-18.7,102.2-15.8c33.7,2.5,68.5,5.2,98.2-10.4c43.8-22.9,80.4-36.9,111.9-42.7c21.4-3.9,40.1-3.9,55.4,0.2
	c17.3,4.6,30.4,14,40,28.8C462.411,168.152,469.111,200.352,464.411,236.252z"/>
<g>
</g>
<g>
</g>
<g>
</g>
<g>
</g>
<g>
</g>
<g>
</g>
<g>
</g>
<g>
</g>
<g>
</g>
<g>
</g>
<g>
</g>
<g>
</g>
<g>
</g>
<g>
</g>
<g>
</g>
</svg>
